<svg version="1.2" xmlns="http://www.w3.org/2000/svg" viewBox="0 0 102 23" width="102" height="23">
	<title>logo</title>
	<style>
	</style>
	<path id="IGUAGBAN AID" fill="#ffffff" aria-label="IGUAGBAN AID"  d="m1.3 19v-17.5h2.27v17.5zm12.39-9.71v8.41q-0.85 0.82-1.76 1.23q-0.91 0.41-1.89 0.41q-2.19 0-3.48-2.44q-1.28-2.45-1.28-6.63q0-4.23 1.31-6.66q1.3-2.42 3.58-2.42q0.87 0 1.68 0.33q0.8 0.32 1.51 0.97v3.62q-0.73-0.83-1.46-1.24q-0.73-0.41-1.46-0.41q-1.35 0-2.09 1.51q-0.73 1.5-0.73 4.3q0 2.78 0.71 4.29q0.71 1.51 2.01 1.51q0.35 0 0.65-0.08q0.31-0.1 0.55-0.28v-3.4h-1.38v-3.02zm1.99 2.7v-10.49h2.27v10.49q0 2.17 0.35 3.11q0.36 0.92 1.17 0.92q0.81 0 1.16-0.92q0.36-0.94 0.36-3.11v-10.49h2.27v10.49q0 3.72-0.94 5.53q-0.93 1.82-2.85 1.82q-1.92 0-2.85-1.82q-0.94-1.81-0.94-5.53zm15.31 7.01l-0.55-3.19h-3.55l-0.56 3.19h-2.28l3.26-17.5h2.7l3.26 17.5zm-2.33-13.39l-1.2 6.96h2.4zm13.68 3.68v8.41q-0.85 0.82-1.76 1.23q-0.92 0.41-1.89 0.41q-2.19 0-3.48-2.44q-1.28-2.45-1.28-6.63q0-4.23 1.31-6.66q1.3-2.42 3.58-2.42q0.87 0 1.67 0.33q0.81 0.32 1.52 0.97v3.62q-0.73-0.83-1.46-1.24q-0.73-0.41-1.46-0.41q-1.35 0-2.09 1.51q-0.73 1.5-0.73 4.3q0 2.78 0.71 4.29q0.7 1.51 2.01 1.51q0.35 0 0.65-0.08q0.31-0.09 0.55-0.28v-3.4h-1.39v-3.02zm4.27-1.01h1.25q0.54 0 0.81-0.47q0.28-0.47 0.28-1.38q0-0.91-0.28-1.37q-0.27-0.48-0.81-0.48h-1.25zm0 7.65h1.33q0.68 0 1.02-0.58q0.35-0.57 0.35-1.73q0-1.14-0.34-1.7q-0.34-0.57-1.03-0.57h-1.33zm3.44-6.3q0.73 0.42 1.13 1.56q0.4 1.14 0.4 2.79q0 2.53-0.86 3.77q-0.86 1.25-2.62 1.25h-3.76v-17.5h3.4q1.83 0 2.65 1.1q0.83 1.1 0.83 3.53q0 1.28-0.3 2.18q-0.3 0.89-0.87 1.32zm9.37 9.37l-0.55-3.19h-3.55l-0.56 3.19h-2.28l3.26-17.5h2.7l3.26 17.5zm-2.33-13.4l-1.21 6.96h2.41zm5.77 13.4v-17.5h2.53l3.2 12v-12h2.15v17.5h-2.53l-3.2-12v12zm20.18 0l-0.55-3.19h-3.55l-0.56 3.19h-2.28l3.26-17.5h2.7l3.26 17.5zm-2.33-13.4l-1.2 6.96h2.4zm5.77 13.4v-17.5h2.27v17.5zm7.57-14.09h-0.81v10.68h0.81q1.39 0 2.12-1.37q0.73-1.37 0.73-3.99q0-2.6-0.73-3.96q-0.73-1.36-2.12-1.36zm-3.08 14.09v-17.5h2.39q2 0 2.98 0.58q0.98 0.56 1.68 1.92q0.62 1.18 0.92 2.73q0.3 1.55 0.3 3.5q0 1.98-0.3 3.54q-0.3 1.55-0.92 2.73q-0.7 1.36-1.69 1.94q-0.99 0.56-2.97 0.56z" />
</svg>